<?xml version="1.0" standalone="no"?>
<!DOCTYPE svg PUBLIC "-//W3C//DTD SVG 1.1//EN" "http://www.w3.org/Graphics/SVG/1.1/DTD/svg11.dtd" >
<svg>
<metadata>
Created by FontForge 20090622 at Wed Mar  5 05:05:57 2014
 By ffonts
1.2, Copyright Copr. Castcraft Software, Inc. 1990-1991.
</metadata>
<defs>
<font id="OPTIAlpine-Primer" horiz-adv-x="591" >
  <font-face 
    font-family="OPTIAlpine-Primer"
    font-weight="500"
    font-stretch="normal"
    units-per-em="1000"
    panose-1="0 0 0 0 0 0 0 0 0 0"
    ascent="800"
    descent="-200"
    x-height="556"
    cap-height="765"
    bbox="-128 -282.874 1099.38 1072.02"
    underline-thickness="73"
    underline-position="-97"
    stemh="89"
    stemv="95"
    unicode-range="U+0020-U+FB02"
  />
<missing-glyph horiz-adv-x="280" 
 />
    <glyph glyph-name=".notdef" horiz-adv-x="280" 
 />
    <glyph glyph-name="space" unicode=" " horiz-adv-x="193" 
d="M0 0z" />
    <glyph glyph-name="exclam" unicode="!" horiz-adv-x="195" 
d="M56 768h103v-239l-27 -346h-52l-24 348v237zM55 109h101v-109h-101v109z" />
    <glyph glyph-name="quotedbl" unicode="&#x22;" horiz-adv-x="252" 
d="M100 463h-23l-18 206c0 20 -18 107 10 126c12 8 28 8 39 0c24 -19 8 -123 8 -130zM199 463h-23l-19 206c0 20 -17 107 11 126c13 8 28 8 39 0c24 -19 8 -123 8 -130z" />
    <glyph glyph-name="numbersign" unicode="#" horiz-adv-x="856" 
d="M505 708l-76 -225h171l77 225h60l-77 -225h165l-17 -50h-165l-62 -177h167l-17 -49h-166l-76 -223h-60l76 223h-172l-76 -223h-61l77 223h-162l17 49h163l61 177h-163l16 50h163l77 225h60zM351 256h170l62 177h-171z" />
    <glyph glyph-name="dollar" unicode="$" horiz-adv-x="605" 
d="M288 828h49v-65c95 0 203 -62 214 -207h-88c-15 79 -38 112 -126 123v-254c74 -24 192 -30 224 -148c18 -62 10 -172 -52 -233c-53 -53 -110 -61 -173 -68v-99h-48v100c-53 7 -159 28 -205 108c-26 43 -30 95 -30 140h91c4 -60 -1 -125 91 -158c10 -4 24 -8 53 -8v278
c-80 22 -176 38 -211 144c-18 54 -13 138 31 195c51 67 123 83 180 87v65zM188 639c-29 -36 -32 -84 -24 -114c17 -57 71 -74 124 -90v246c-49 -6 -75 -13 -100 -42zM339 59c41 1 70 5 105 38c37 36 36 99 28 131c-17 68 -77 83 -133 99v-268z" />
    <glyph glyph-name="percent" unicode="%" horiz-adv-x="960" 
d="M661 747h55l-416 -766h-55zM233 649c-58 4 -110 -40 -114 -98c-4 -59 40 -114 98 -118c59 -4 112 42 116 100c4 59 -41 112 -100 116zM391 469c-42 -90 -150 -129 -240 -88c-91 42 -130 150 -88 240c41 91 149 130 240 88c90 -41 129 -149 88 -240zM743 289
c-59 3 -111 -40 -115 -98c-4 -59 40 -114 99 -118c58 -4 112 42 116 100c4 59 -42 114 -100 116zM900 109c-41 -89 -151 -129 -240 -88c-89 42 -129 151 -88 240c41 90 151 130 240 88c89 -41 129 -150 88 -240z" />
    <glyph glyph-name="ampersand" unicode="&#x26;" horiz-adv-x="712" 
d="M361 411l138 -166c24 74 24 76 32 119h85c-5 -53 -33 -145 -60 -196l132 -168h-119l-69 88c-105 -104 -172 -120 -271 -104c-56 9 -121 41 -156 113c-26 55 -26 148 4 204c31 56 84 90 146 127c-64 80 -96 136 -71 220c16 52 53 92 109 111c48 14 128 12 174 -23
c49 -37 65 -88 61 -131c-8 -81 -41 -136 -135 -194zM409 603c0 30 -13 56 -38 73c-26 17 -62 16 -82 8c-30 -11 -46 -36 -53 -60c-12 -51 25 -97 73 -153c67 48 100 81 100 132zM181 291c-36 -42 -42 -98 -29 -136c19 -55 65 -79 107 -87c60 -11 121 8 188 87l-171 209
c-45 -29 -73 -48 -95 -73z" />
    <glyph glyph-name="quotesingle" unicode="'" horiz-adv-x="199" 
d="M53 767h110v-38c0 -110 12 -189 -110 -234v49c63 19 54 92 55 108h-55v115z" />
    <glyph glyph-name="parenleft" unicode="(" horiz-adv-x="331" 
d="M229 780h62l-18 -36c-165 -315 -164 -615 7 -932l12 -28h-61l-18 28c-212 320 -214 620 -2 943z" />
    <glyph glyph-name="parenright" unicode=")" horiz-adv-x="331" 
d="M137 755c212 -323 210 -623 -2 -943l-18 -28h-61l12 28c171 317 172 617 7 932l-18 36h62z" />
    <glyph glyph-name="asterisk" unicode="*" horiz-adv-x="416" 
d="M187 765h60v-114l113 37l20 -56l-112 -40l69 -95l-49 -36l-69 98l-70 -98l-52 34l67 97l-111 39l20 57l114 -37v114z" />
    <glyph glyph-name="plus" unicode="+" horiz-adv-x="711" 
d="M329 627h70v-280h272v-66h-272v-281h-70v281h-273v66h273v280z" />
    <glyph glyph-name="comma" unicode="," horiz-adv-x="200" 
d="M55 115h109v-38c0 -110 12 -189 -109 -234v49c62 19 53 92 54 108h-54v115z" />
    <glyph glyph-name="hyphen" unicode="-" horiz-adv-x="688" 
d="M55 333h596v-76h-596v76z" />
    <glyph glyph-name="period" unicode="." horiz-adv-x="192" 
d="M55 109h101v-109h-101v109z" />
    <glyph glyph-name="slash" unicode="/" horiz-adv-x="616" 
d="M527 764h58l-469 -765h-57z" />
    <glyph glyph-name="zero" unicode="0" 
d="M260 744c57 13 156 5 217 -60c112 -120 92 -371 74 -455c-16 -81 -56 -186 -163 -229c-60 -24 -145 -27 -215 23c-114 78 -126 277 -125 358c1 84 21 319 212 363zM212 623c-77 -88 -67 -332 -49 -412c10 -51 34 -108 92 -132c34 -15 85 -11 116 9c76 48 86 196 89 251
c3 65 9 232 -73 301c-36 31 -86 31 -119 21c-24 -8 -44 -24 -56 -38z" />
    <glyph glyph-name="one" unicode="1" 
d="M252 736h97v-736h-97v736z" />
    <glyph glyph-name="two" unicode="2" 
d="M156 92h405v-92h-510c9 147 32 216 196 313l53 30c95 54 160 77 161 185c0 39 -13 87 -65 117c-31 19 -116 24 -156 2c-71 -39 -76 -108 -80 -166h-92c7 95 19 188 127 242c65 33 192 41 272 -12c78 -52 96 -127 93 -195c-7 -137 -73 -171 -211 -244l-57 -31
c-59 -34 -107 -69 -136 -149z" />
    <glyph glyph-name="three" unicode="3" 
d="M447 397c86 -37 110 -76 117 -150c7 -66 -9 -158 -92 -218c-76 -54 -224 -57 -295 -26c-100 45 -121 138 -128 228h95c4 -58 7 -115 73 -148c42 -22 127 -22 176 5c46 24 67 65 71 109c3 34 -3 82 -45 116c-39 32 -122 36 -170 32v84c38 -2 134 -5 172 50
c22 33 26 84 10 118c-22 44 -68 66 -115 68c-47 3 -100 -5 -136 -61c-19 -28 -21 -64 -24 -100h-89c1 81 9 157 102 215c70 42 192 37 259 6c65 -30 97 -76 108 -140c11 -74 -7 -129 -89 -188z" />
    <glyph glyph-name="four" unicode="4" 
d="M69 735h95v-388h233v388h95v-388h71v-82h-71v-265h-95v265h-328v470z" />
    <glyph glyph-name="five" unicode="5" 
d="M139 735h382v-91h-314l-31 -201c84 54 184 54 260 17c80 -40 120 -113 127 -184c8 -77 -15 -180 -104 -247c-70 -52 -204 -57 -274 -28c-89 38 -122 112 -130 194h92c12 -54 28 -94 93 -116c48 -16 117 -16 164 22c45 39 64 112 56 163c-9 59 -36 103 -92 125
c-48 20 -120 19 -168 -17c-21 -16 -20 -20 -39 -41h-81z" />
    <glyph glyph-name="six" unicode="6" 
d="M309 749h110l-167 -282c75 21 180 17 252 -63c68 -75 68 -192 36 -273c-39 -98 -119 -148 -216 -148c-80 0 -180 21 -237 120c-68 116 -12 257 61 380zM160 267c-7 -59 4 -127 61 -170c50 -37 107 -36 152 -16c59 26 82 84 87 132c5 58 -4 118 -63 158
c-42 30 -108 33 -148 17c-53 -21 -82 -72 -89 -121z" />
    <glyph glyph-name="seven" unicode="7" 
d="M51 735h514v-83c-157 -181 -264 -436 -301 -621l-7 -31h-101c24 167 95 359 299 639h-404v96z" />
    <glyph glyph-name="eight" unicode="8" 
d="M441 399c78 -36 119 -92 120 -178c0 -73 -26 -154 -114 -205c-78 -44 -210 -47 -294 5c-81 51 -108 127 -105 194c1 77 35 136 125 182c-46 19 -88 70 -96 131c-6 48 10 121 68 173c55 48 168 56 231 42c59 -14 119 -52 145 -118c20 -46 18 -118 -9 -162
c-15 -24 -32 -40 -71 -64zM177 579c-9 -39 -4 -80 24 -108c38 -38 102 -44 142 -35c44 11 74 41 88 84c12 36 4 72 -20 100c-39 45 -106 48 -139 43c-45 -8 -81 -35 -95 -84zM152 185c9 -49 37 -84 87 -104c46 -18 132 -12 168 14c49 34 54 88 53 125c-3 52 -17 84 -68 112
c-41 23 -123 27 -167 4c-69 -37 -82 -97 -73 -151z" />
    <glyph glyph-name="nine" unicode="9" 
d="M309 0h-110l161 275c-72 -23 -145 -24 -217 29c-71 52 -92 124 -92 191c0 70 24 153 100 212c61 46 165 52 232 32c72 -22 129 -74 154 -147c40 -113 -4 -212 -76 -333zM148 521c-4 -53 7 -109 63 -150c49 -36 105 -34 149 -16c60 25 84 73 92 121c8 45 -8 117 -57 157
c-47 39 -108 42 -148 27c-70 -25 -95 -84 -99 -139z" />
    <glyph glyph-name="colon" unicode=":" horiz-adv-x="192" 
d="M55 109h101v-109h-101v109zM55 353h101v-109h-101v109z" />
    <glyph glyph-name="semicolon" unicode=";" horiz-adv-x="200" 
d="M55 344h109v-109h-109v109zM55 115h109v-38c0 -110 12 -189 -109 -234v49c62 19 53 92 54 108h-54v115z" />
    <glyph glyph-name="less" unicode="&#x3c;" horiz-adv-x="577" 
d="M524 477l-389 -160l389 -160v-78l-483 204v69l483 204v-79z" />
    <glyph glyph-name="equal" unicode="=" horiz-adv-x="872" 
d="M56 477h775v-64h-775v64zM56 223h772v-62h-772v62z" />
    <glyph glyph-name="greater" unicode="&#x3e;" horiz-adv-x="577" 
d="M532 281l-483 -204v79l387 160l-387 160v79l483 -204v-70z" />
    <glyph glyph-name="question" unicode="?" horiz-adv-x="545" 
d="M319 0h-100v109h100v-109zM309 196h-89c1 75 -1 119 68 196l19 20c85 91 116 113 98 192c-8 36 -32 68 -77 84c-35 11 -103 11 -137 -16c-54 -41 -54 -97 -59 -145h-87c3 82 19 166 103 218c67 42 169 43 235 15c69 -29 105 -79 120 -148c18 -92 -14 -135 -118 -241
l-25 -26c-52 -52 -51 -96 -51 -149z" />
    <glyph glyph-name="at" unicode="@" horiz-adv-x="901" 
d="M532 156c-48 -67 -93 -91 -160 -85c-44 4 -85 26 -109 77c-28 61 -4 175 37 236c48 73 108 111 176 109c33 -2 75 -10 93 -58c3 -7 4 -14 11 -35l21 79h75l-51 -194c-9 -29 -38 -105 -9 -137c15 -13 39 -17 64 -12c55 8 93 53 116 113c27 68 25 195 -27 268
c-74 102 -220 127 -300 120c-109 -9 -237 -56 -316 -197c-50 -97 -62 -252 -1 -361c65 -118 196 -163 296 -168c105 -6 208 20 329 94l24 -33c-172 -115 -370 -137 -521 -71c-143 66 -209 166 -227 299c-14 107 19 277 148 381c134 108 326 119 447 78
c108 -39 181 -123 204 -227c17 -81 4 -224 -81 -305c-42 -42 -118 -64 -162 -52c-41 10 -64 30 -77 81zM392 380c-40 -60 -72 -164 -52 -215c11 -24 29 -38 49 -42c28 -6 60 5 84 29c50 45 86 172 79 223c-5 28 -19 46 -44 58c-23 11 -47 7 -69 -5c-19 -11 -34 -28 -47 -48z
" />
    <glyph glyph-name="A" unicode="A" horiz-adv-x="707" 
d="M311 771h116l274 -771h-109l-81 231h-298l-85 -231h-103zM244 315h235l-114 336z" />
    <glyph glyph-name="B" unicode="B" horiz-adv-x="664" 
d="M55 765h270c60 0 178 8 242 -73c37 -49 46 -109 33 -163c-12 -50 -28 -77 -92 -117c69 -27 111 -59 128 -139c12 -54 4 -128 -40 -184c-72 -88 -192 -89 -275 -89h-266v765zM153 677v-237h135c16 0 160 -8 200 60c19 32 23 85 1 120c-40 65 -146 57 -194 57h-142z
M153 351v-262h155c44 0 169 -12 216 70c20 33 24 92 0 132c-43 70 -156 60 -212 60h-159z" />
    <glyph glyph-name="C" unicode="C" horiz-adv-x="741" 
d="M709 543h-98c-19 76 -50 121 -131 148c-55 18 -160 17 -229 -36c-99 -76 -115 -263 -100 -335c13 -67 33 -184 130 -232c54 -27 164 -32 226 5c80 48 96 111 112 184h100c-23 -112 -55 -224 -200 -280c-83 -32 -232 -38 -330 35c-138 101 -154 297 -145 403
c9 104 49 248 185 321c87 47 248 49 348 -8c84 -49 123 -129 132 -205z" />
    <glyph glyph-name="D" unicode="D" horiz-adv-x="703" 
d="M55 765h245c113 0 245 3 335 -153c66 -116 57 -348 -11 -465c-89 -154 -195 -147 -324 -147h-245v765zM157 675v-586h119c104 0 195 -10 260 104c48 84 59 286 1 383c-64 109 -172 99 -265 99h-115z" />
    <glyph glyph-name="E" unicode="E" horiz-adv-x="651" 
d="M56 765h555v-90h-452v-235h417v-88h-420v-260h463v-92h-563v765z" />
    <glyph glyph-name="F" unicode="F" horiz-adv-x="589" 
d="M55 765h526v-92h-425v-234h375v-90h-375v-349h-101v765z" />
    <glyph glyph-name="G" unicode="G" horiz-adv-x="775" 
d="M731 540h-103c-29 88 -73 132 -159 149c-65 14 -172 14 -241 -64c-85 -92 -92 -277 -64 -372c25 -85 83 -154 179 -180c64 -16 166 -9 229 56c55 56 64 118 64 190h-231v85h339c0 -111 0 -280 -141 -372c-102 -65 -246 -76 -355 -25c-136 62 -191 193 -203 308
c-10 98 11 298 139 405c103 87 263 81 352 51c108 -38 169 -110 195 -231z" />
    <glyph glyph-name="H" unicode="H" horiz-adv-x="697" 
d="M56 765h104v-313h396v313h104v-765h-104v359h-396v-359h-104v765z" />
    <glyph glyph-name="I" unicode="I" horiz-adv-x="344" 
d="M55 765h253v-92h-73v-581h73v-92h-253v92h72v581h-72v92z" />
    <glyph glyph-name="J" unicode="J" horiz-adv-x="509" 
d="M368 765h99v-506c0 -64 9 -194 -99 -256c-64 -36 -188 -39 -251 0c-97 60 -88 154 -88 238h98c0 -32 -7 -133 52 -166c28 -16 97 -19 130 2c63 38 59 142 59 178v510z" />
    <glyph glyph-name="K" unicode="K" horiz-adv-x="673" 
d="M55 765h98v-368l376 368h138l-315 -308l323 -457h-131l-268 384l-123 -119v-265h-98v765z" />
    <glyph glyph-name="L" unicode="L" horiz-adv-x="580" 
d="M55 765h102v-673h387v-92h-489v765z" />
    <glyph glyph-name="M" unicode="M" horiz-adv-x="824" 
d="M55 765h146l222 -642l217 642h148v-765h-99v640l-218 -640h-100l-218 636v-636h-98v765z" />
    <glyph glyph-name="N" unicode="N" horiz-adv-x="699" 
d="M55 765h120l392 -613v613h97v-765h-119l-393 616v-616h-97v765z" />
    <glyph glyph-name="O" unicode="O" horiz-adv-x="801" 
d="M337 785c92 12 251 11 350 -105c98 -116 105 -312 74 -425c-28 -106 -98 -216 -228 -260c-97 -34 -272 -30 -366 54c-124 110 -134 272 -128 368c5 98 58 259 182 330c40 22 80 33 116 38zM217 617c-70 -89 -84 -238 -61 -336c20 -84 51 -145 141 -194
c67 -36 180 -26 247 17c101 65 124 192 127 265c2 80 -19 216 -104 283c-74 57 -171 59 -247 36c-35 -11 -67 -25 -103 -71z" />
    <glyph glyph-name="P" unicode="P" horiz-adv-x="645" 
d="M55 765h273c85 2 208 4 271 -105c34 -59 32 -175 -2 -232c-68 -115 -180 -107 -276 -107h-164v-321h-102v765zM157 411h132c36 0 174 -8 214 60c22 38 25 104 4 141c-40 72 -163 63 -203 63h-147v-264z" />
    <glyph glyph-name="Q" unicode="Q" horiz-adv-x="801" 
d="M669 80l103 -81l-52 -64l-117 90c-119 -64 -283 -66 -386 -10c-129 70 -172 225 -180 329s15 284 146 381c92 68 266 82 366 47c119 -41 183 -119 214 -237c36 -139 20 -315 -94 -455zM672 409c0 72 -29 199 -121 254c-79 46 -194 48 -267 9
c-107 -53 -133 -165 -140 -244c-7 -87 3 -239 104 -315c81 -61 192 -54 272 -22l-79 65l52 61l98 -76c70 90 82 179 81 268z" />
    <glyph glyph-name="R" unicode="R" horiz-adv-x="707" 
d="M55 765h326c63 0 180 3 244 -78c39 -47 47 -132 35 -187s-32 -83 -101 -125c101 -51 89 -102 93 -194v-78c0 -51 5 -66 44 -87v-16h-128c-13 16 -12 40 -12 61v74c-1 16 3 124 -44 165c-36 32 -165 27 -167 27h-186v-327h-104v765zM159 409h181c52 0 168 -8 204 63
c19 37 19 108 0 143c-37 68 -189 60 -212 60h-173v-266z" />
    <glyph glyph-name="S" unicode="S" horiz-adv-x="660" 
d="M612 548h-95c-13 76 -28 115 -106 144c-40 15 -166 23 -222 -31c-33 -32 -44 -81 -33 -117c19 -67 87 -76 144 -89l91 -20c68 -16 190 -38 232 -139c21 -52 21 -143 -19 -207c-59 -90 -189 -112 -252 -114c-77 -3 -203 12 -273 102c-38 48 -44 94 -48 168h94
c4 -72 22 -128 104 -164c60 -26 202 -28 266 26c37 32 46 81 37 121c-17 73 -113 95 -168 108l-99 23c-68 16 -156 26 -197 120c-21 52 -17 145 19 201c49 77 130 105 198 109c70 4 202 3 279 -89c37 -45 44 -91 48 -152z" />
    <glyph glyph-name="T" unicode="T" horiz-adv-x="668" 
d="M35 765h617v-92h-257v-673h-107v673h-253v92z" />
    <glyph glyph-name="U" unicode="U" horiz-adv-x="691" 
d="M159 765v-430c0 -75 -8 -190 90 -247c54 -31 158 -25 211 5c101 58 91 194 91 251v421h104v-437c0 -115 0 -236 -134 -313c-89 -52 -258 -52 -334 -7c-143 81 -132 199 -132 311v446h104z" />
    <glyph glyph-name="V" unicode="V" horiz-adv-x="697" 
d="M25 765h114l222 -646l219 646h113l-278 -765h-114z" />
    <glyph glyph-name="W" unicode="W" horiz-adv-x="1000" 
d="M139 765l140 -614l174 614h111l173 -616l143 616h113l-201 -765h-107l-176 631l-177 -631h-108l-199 765h114z" />
    <glyph glyph-name="X" unicode="X" horiz-adv-x="705" 
d="M43 765h130l196 -288l192 288h122l-254 -372l266 -393h-124l-208 313l-215 -313h-120l272 393z" />
    <glyph glyph-name="Y" unicode="Y" horiz-adv-x="701" 
d="M23 765h116l218 -368l222 368h117l-287 -462v-303h-102v307z" />
    <glyph glyph-name="Z" unicode="Z" horiz-adv-x="695" 
d="M91 765h568v-88l-468 -586h468v-91h-603v85l465 588h-430v92z" />
    <glyph glyph-name="bracketleft" unicode="[" horiz-adv-x="289" 
d="M55 765h198v-76h-112v-830h112v-76h-198v982z" />
    <glyph glyph-name="backslash" unicode="\" horiz-adv-x="616" 
d="M573 1h-57l-469 766h58z" />
    <glyph glyph-name="bracketright" unicode="]" horiz-adv-x="289" 
d="M256 -217h-199v76h112v830h-112v76h199v-982z" />
    <glyph glyph-name="asciicircum" unicode="^" horiz-adv-x="468" 
d="M185 976h119l132 -187h-104l-85 123l-90 -123h-104z" />
    <glyph glyph-name="underscore" unicode="_" horiz-adv-x="464" 
d="M528 -165h-592v41h592v-41z" />
    <glyph glyph-name="grave" unicode="`" horiz-adv-x="296" 
d="M53 784h114l93 -151h-69z" />
    <glyph glyph-name="a" unicode="a" horiz-adv-x="573" 
d="M441 484v72h87v-556h-87v71c-56 -76 -130 -102 -204 -90c-86 15 -142 66 -178 162c-30 81 -32 264 44 354c57 70 138 87 208 76c61 -9 85 -30 130 -89zM169 429c-38 -66 -36 -221 -10 -278c20 -47 46 -75 93 -86c43 -9 95 2 129 32c64 60 66 176 60 230
c-6 57 -21 117 -88 153c-38 21 -89 23 -122 8c-28 -13 -47 -35 -62 -59z" />
    <glyph glyph-name="b" unicode="b" horiz-adv-x="572" 
d="M56 765h91v-269c74 77 150 91 225 73c85 -20 133 -73 160 -157c24 -80 25 -264 -63 -360c-61 -67 -149 -81 -208 -69c-46 9 -78 36 -120 84v-67h-85v765zM143 235c6 -59 22 -128 89 -160c40 -19 104 -16 140 6c75 50 80 163 79 214c-2 54 -14 142 -82 182
c-40 23 -97 22 -137 0c-96 -50 -95 -182 -89 -242z" />
    <glyph glyph-name="c" unicode="c" horiz-adv-x="537" 
d="M513 375h-90c-12 54 -26 93 -84 113c-36 12 -92 11 -131 -21c-73 -58 -76 -175 -69 -243c4 -45 25 -123 84 -152c32 -16 93 -17 125 1c49 30 60 62 75 120h90c-13 -78 -45 -161 -138 -197c-64 -24 -162 -29 -231 23c-91 68 -109 201 -103 285c6 75 34 192 136 247
c63 33 167 36 236 -4c72 -42 90 -104 100 -172z" />
    <glyph glyph-name="d" unicode="d" horiz-adv-x="568" 
d="M436 765h89v-765h-84v73c-69 -82 -132 -104 -213 -90c-81 13 -139 65 -173 152c-30 76 -26 262 44 357c57 77 142 91 208 81c52 -8 94 -33 129 -80v272zM156 409c-35 -68 -33 -201 1 -269c24 -48 64 -69 104 -75c46 -6 88 3 124 39c56 57 56 205 50 247
c-8 49 -34 104 -87 130c-41 20 -93 16 -127 -1c-30 -17 -52 -43 -65 -71z" />
    <glyph glyph-name="e" unicode="e" horiz-adv-x="565" 
d="M544 255h-407c8 -71 12 -152 94 -186c41 -17 110 -18 158 19c26 21 38 43 56 84h91c-31 -89 -71 -155 -168 -184c-68 -20 -176 -9 -243 49c-93 83 -88 268 -76 335c15 79 64 172 160 195c76 18 182 13 252 -44c82 -66 83 -194 83 -268zM389 468c-42 37 -114 35 -150 20
c-68 -28 -94 -96 -99 -157h307c-8 58 -6 92 -58 137z" />
    <glyph glyph-name="f" unicode="f" horiz-adv-x="268" 
d="M329 620h-78c0 37 -8 64 -36 64s-38 -29 -38 -64v-64h104v-72h-105v-484h-93v484h-76v72h74v71c0 93 54 138 128 138c91 0 120 -66 120 -145z" />
    <glyph glyph-name="g" unicode="g" horiz-adv-x="563" 
d="M436 492v64h85v-484c0 -77 4 -201 -100 -269c-65 -42 -198 -47 -265 -16c-65 28 -91 70 -101 145h92c16 -51 34 -73 84 -84c38 -9 125 -7 168 39c44 46 36 145 37 190c-59 -77 -129 -105 -205 -97c-66 7 -123 35 -163 115s-39 270 7 354c44 80 101 118 173 126
c65 6 120 -8 188 -83zM141 376c-13 -52 -28 -215 42 -284c40 -39 100 -40 137 -29c71 20 95 73 108 130c12 52 13 207 -47 263c-40 39 -104 43 -142 31c-58 -18 -84 -60 -98 -111z" />
    <glyph glyph-name="h" unicode="h" horiz-adv-x="549" 
d="M56 765h97v-276c76 91 176 102 252 74c98 -36 108 -142 108 -238v-325h-96v301c0 42 7 147 -49 178c-37 20 -101 20 -137 -3c-88 -53 -79 -159 -79 -233v-243h-96v765z" />
    <glyph glyph-name="i" unicode="i" horiz-adv-x="185" 
d="M56 765h91v-108h-91v108zM56 556h91v-556h-91v556z" />
    <glyph glyph-name="j" unicode="j" horiz-adv-x="180" 
d="M56 556h89v-587c0 -37 8 -137 -60 -177c-37 -21 -100 -27 -141 -3c-56 34 -60 72 -60 131h85c0 -25 2 -52 24 -63c10 -5 24 -5 38 3c29 17 25 92 25 119v577zM56 765h91v-108h-91v108z" />
    <glyph glyph-name="k" unicode="k" horiz-adv-x="521" 
d="M56 765h91v-438l236 229h118l-210 -207l221 -349h-117l-174 281l-74 -72v-209h-91v765z" />
    <glyph glyph-name="l" unicode="l" horiz-adv-x="185" 
d="M56 765h91v-765h-91v765z" />
    <glyph glyph-name="m" unicode="m" horiz-adv-x="848" 
d="M460 488c77 83 157 107 243 73c110 -42 100 -156 100 -230v-331h-99v316c0 65 5 133 -44 163c-27 16 -79 16 -116 -6c-79 -46 -71 -142 -71 -210v-263h-93v316c0 23 7 133 -43 165c-21 14 -74 22 -116 -6c-82 -55 -74 -164 -74 -231v-244h-92v556h93v-75
c73 86 139 104 211 91c44 -8 64 -28 101 -84z" />
    <glyph glyph-name="n" unicode="n" horiz-adv-x="547" 
d="M507 0h-94v292c0 45 8 149 -54 187c-32 18 -92 18 -130 -4c-90 -55 -81 -139 -81 -227v-248h-93v556h90v-77c79 93 176 114 256 85c116 -44 106 -147 106 -236v-328z" />
    <glyph glyph-name="o" unicode="o" horiz-adv-x="581" 
d="M253 573c66 8 166 0 234 -74c84 -92 78 -234 58 -318c-20 -80 -66 -154 -157 -188c-63 -22 -173 -24 -245 30c-92 69 -106 192 -103 272c3 74 39 193 131 249c24 15 60 27 82 29zM135 256c4 -56 12 -136 81 -177c41 -23 104 -26 148 -3c72 36 88 105 95 163
c25 213 -107 281 -207 249c-104 -33 -121 -167 -117 -232z" />
    <glyph glyph-name="p" unicode="p" horiz-adv-x="569" 
d="M149 60v-281h-94v777h92v-68c69 81 130 97 210 83c78 -15 135 -62 167 -148c33 -91 33 -266 -40 -358c-57 -70 -141 -93 -207 -85c-56 8 -82 28 -128 80zM149 344c-6 -41 -17 -189 55 -251c41 -36 104 -36 141 -22c66 22 88 85 98 138c8 43 13 192 -51 248
c-39 34 -109 36 -143 26c-64 -22 -92 -91 -100 -139z" />
    <glyph glyph-name="q" unicode="q" horiz-adv-x="564" 
d="M436 487v69h88v-777h-93v281c-78 -80 -146 -92 -223 -73c-85 20 -133 81 -159 165c-24 80 -21 268 62 357c61 66 152 76 216 62c50 -12 73 -39 109 -84zM165 427c-42 -67 -38 -220 -16 -274c19 -48 52 -77 94 -88c37 -9 93 -1 126 27c66 55 67 189 64 224
c-4 51 -22 127 -77 160c-35 21 -93 23 -125 11c-26 -10 -50 -35 -66 -60z" />
    <glyph glyph-name="r" unicode="r" horiz-adv-x="325" 
d="M325 575v-98c-50 3 -90 10 -132 -34c-52 -56 -46 -122 -46 -190v-253h-92v556h86v-88c52 76 99 117 184 107z" />
    <glyph glyph-name="s" unicode="s" horiz-adv-x="512" 
d="M469 403h-89c-11 52 -25 70 -76 85c-32 9 -112 13 -147 -21c-17 -19 -25 -42 -18 -64c13 -48 93 -66 126 -74l32 -8c44 -10 154 -33 180 -102c16 -43 14 -107 -14 -150c-46 -68 -123 -89 -187 -90c-64 -2 -161 6 -215 78c-30 42 -28 82 -29 118h85c7 -54 20 -87 80 -108
c44 -15 131 -15 171 22c23 22 32 50 25 75c-13 48 -89 61 -129 72l-35 9c-66 18 -156 32 -180 120c-12 46 0 114 48 159c60 56 176 63 247 40c88 -28 115 -76 125 -161z" />
    <glyph glyph-name="t" unicode="t" horiz-adv-x="259" 
d="M85 711h95v-155h89v-76h-89v-480h-95v480h-74v76h74v155z" />
    <glyph glyph-name="u" unicode="u" horiz-adv-x="536" 
d="M56 556h93v-305c0 -31 -6 -148 51 -175c36 -16 95 -13 131 9c84 54 76 190 76 235v236h93v-556h-93v77c-83 -100 -175 -113 -248 -86c-112 41 -103 137 -103 226v339z" />
    <glyph glyph-name="v" unicode="v" horiz-adv-x="537" 
d="M23 556h100l149 -448l159 448h100l-212 -556h-99z" />
    <glyph glyph-name="w" unicode="w" horiz-adv-x="764" 
d="M23 556h100l108 -431l109 431h104l109 -429l115 429h91l-162 -556h-96l-114 427l-108 -427h-96z" />
    <glyph glyph-name="x" unicode="x" horiz-adv-x="539" 
d="M29 556h119l128 -193l132 193h111l-184 -268l193 -288h-116l-141 207l-136 -207h-115l193 284z" />
    <glyph glyph-name="y" unicode="y" horiz-adv-x="533" 
d="M23 556h97l156 -447l151 447h101l-288 -783h-85l69 207z" />
    <glyph glyph-name="z" unicode="z" horiz-adv-x="557" 
d="M80 556h432v-77l-329 -394h338v-85h-466v73l325 398h-300v85z" />
    <glyph glyph-name="braceleft" unicode="{" horiz-adv-x="501" 
d="M445 765v-28c-122 -21 -153 -48 -153 -174v-78c-3 -52 11 -105 -53 -153c-42 -32 -111 -45 -156 -53c142 -19 201 -46 209 -204v-76c0 -50 -7 -102 57 -144c31 -23 58 -28 96 -32v-28c-62 0 -128 6 -182 62c-50 50 -40 90 -42 150v78c0 48 7 100 -53 139
c-31 20 -65 24 -113 32v45c114 18 166 42 166 171v79c2 65 -8 112 59 168c40 32 111 45 165 46z" />
    <glyph glyph-name="bar" unicode="|" horiz-adv-x="135" 
d="M99 -124h-42v947h42v-947z" />
    <glyph glyph-name="braceright" unicode="}" horiz-adv-x="501" 
d="M220 719c67 -56 57 -103 59 -168v-79c0 -129 52 -153 166 -171v-45c-48 -8 -82 -12 -113 -32c-60 -39 -53 -91 -53 -139v-78c-2 -60 8 -100 -42 -150c-54 -56 -120 -62 -182 -62v28c38 4 65 9 96 32c64 42 57 94 57 144v76c8 158 67 185 209 204c-45 8 -114 21 -156 53
c-64 48 -50 101 -53 153v78c0 126 -31 153 -153 174v28c54 -1 125 -14 165 -46z" />
    <glyph glyph-name="asciitilde" unicode="~" horiz-adv-x="484" 
d="M439 949h64c-10 -46 -27 -102 -80 -129c-68 -33 -126 11 -214 32c-28 7 -50 16 -70 -4c-14 -13 -19 -27 -26 -51h-60c7 47 26 100 72 127c43 24 107 13 175 -13l19 -7c33 -13 68 -19 97 -1c15 9 19 24 23 46z" />
    <glyph glyph-name="Adieresis" unicode="&#xc4;" horiz-adv-x="707" 
d="M229 964h96v-108h-96v108zM400 965h96v-109h-96v109zM309 771h116l275 -771h-109l-82 231h-297l-85 -231h-103zM243 315h234l-113 336z" />
    <glyph glyph-name="Aring" unicode="&#xc5;" horiz-adv-x="707" 
d="M263 967c0 58 52 106 110 105c59 -1 106 -51 106 -109c0 -60 -51 -107 -111 -107c-59 0 -105 51 -105 111zM363 900c36 -4 70 21 73 57s-21 68 -57 71s-68 -20 -72 -56s20 -68 56 -72zM313 771h116l275 -771h-109l-82 231h-297l-85 -231h-103zM247 315h234l-113 336z" />
    <glyph glyph-name="Ccedilla" unicode="&#xc7;" horiz-adv-x="741" 
d="M355 -16c-59 5 -118 21 -164 56c-139 101 -155 288 -146 393c10 104 50 248 186 322c86 46 248 49 348 -8c84 -50 122 -130 132 -206h-99c-19 76 -49 122 -131 148c-54 19 -160 18 -229 -36c-99 -76 -115 -253 -100 -325c13 -67 33 -184 131 -232c53 -27 164 -32 225 5
c80 48 96 111 112 184h100c-23 -112 -55 -224 -200 -280c-32 -12 -75 -22 -121 -22l-48 -72c30 5 48 6 74 0c38 -10 62 -34 68 -70c7 -30 -2 -65 -33 -92c-56 -50 -160 -32 -225 -8l18 39c62 -21 102 -27 134 -9c21 10 32 28 32 44c0 20 -6 36 -18 45c-25 21 -52 19 -100 3
l-20 14z" />
    <glyph glyph-name="Eacute" unicode="&#xc9;" horiz-adv-x="651" 
d="M323 1044h142l-172 -188h-86zM55 765h554v-90h-452v-235h418v-88h-420v-260h462v-92h-562v765z" />
    <glyph glyph-name="Ntilde" unicode="&#xd1;" horiz-adv-x="699" 
d="M517 1008h64c-9 -49 -26 -103 -80 -129c-68 -34 -125 10 -213 32c-28 6 -49 9 -69 -8c-23 -20 -18 -26 -27 -47h-60c7 47 25 100 72 127c43 24 107 13 175 -14l18 -6c34 -14 70 -24 98 1c16 15 16 29 22 44zM55 765h120l392 -613v613h97v-765h-119l-393 616v-616h-97v765
z" />
    <glyph glyph-name="Odieresis" unicode="&#xd6;" horiz-adv-x="801" 
d="M275 964h96v-108h-96v108zM445 965h96v-109h-96v109zM339 785c92 12 250 11 349 -105s105 -312 75 -425c-28 -106 -99 -216 -228 -260c-98 -34 -272 -30 -367 54c-124 110 -133 272 -128 368c5 98 59 259 183 330c40 22 80 33 116 38zM219 617c-71 -89 -84 -238 -62 -336
c20 -84 51 -145 142 -194c66 -36 180 -26 246 17c102 65 124 192 127 265c3 80 -19 216 -104 283c-73 57 -171 59 -247 36c-34 -11 -66 -25 -102 -71z" />
    <glyph glyph-name="Udieresis" unicode="&#xdc;" horiz-adv-x="691" 
d="M211 964h96v-108h-96v108zM381 965h96v-109h-96v109zM159 765v-430c0 -75 -8 -190 90 -247c54 -31 158 -25 211 5c101 58 91 194 91 251v421h104v-437c0 -115 0 -236 -134 -313c-89 -52 -258 -52 -334 -7c-143 81 -132 199 -132 311v446h104z" />
    <glyph glyph-name="aacute" unicode="&#xe1;" horiz-adv-x="573" 
d="M269 821h143l-172 -188h-87zM441 484v72h87v-556h-87v71c-56 -76 -130 -102 -204 -90c-86 15 -142 66 -178 162c-30 81 -32 264 44 354c57 70 138 87 208 76c61 -9 85 -30 130 -89zM169 429c-38 -66 -36 -221 -10 -278c20 -47 46 -75 93 -86c43 -9 95 2 129 32
c64 60 66 176 60 230c-6 57 -21 117 -88 153c-38 21 -89 23 -122 8c-28 -13 -47 -35 -62 -59z" />
    <glyph glyph-name="agrave" unicode="&#xe0;" horiz-adv-x="573" 
d="M181 784h114l93 -151h-69zM444 484v72h87v-556h-87v71c-56 -76 -131 -102 -204 -90c-87 15 -143 66 -179 162c-29 81 -32 264 44 354c58 70 139 87 208 76c62 -9 86 -30 131 -89zM172 429c-39 -66 -36 -221 -11 -278c20 -47 47 -75 94 -86c42 -9 94 2 129 32
c64 60 65 176 60 230c-7 57 -21 117 -88 153c-39 21 -89 23 -123 8c-28 -13 -46 -35 -61 -59z" />
    <glyph glyph-name="acircumflex" unicode="&#xe2;" horiz-adv-x="573" 
d="M225 820h119l132 -187h-104l-85 123l-90 -123h-104zM444 484v72h87v-556h-87v71c-56 -76 -131 -102 -204 -90c-87 15 -143 66 -179 162c-29 81 -32 264 44 354c58 70 139 87 208 76c62 -9 86 -30 131 -89zM172 429c-39 -66 -36 -221 -11 -278c20 -47 47 -75 94 -86
c42 -9 94 2 129 32c64 60 65 176 60 230c-7 57 -21 117 -88 153c-39 21 -89 23 -123 8c-28 -13 -46 -35 -61 -59z" />
    <glyph glyph-name="adieresis" unicode="&#xe4;" horiz-adv-x="573" 
d="M155 741h96v-108h-96v108zM325 743h96v-110h-96v110zM447 484v72h86v-556h-86v71c-56 -76 -131 -102 -204 -90c-87 15 -143 66 -179 162c-29 81 -32 264 44 354c57 70 139 87 208 76c61 -9 85 -30 131 -89zM175 429c-39 -66 -36 -221 -11 -278c20 -47 47 -75 93 -86
c43 -9 95 2 130 32c64 60 65 176 60 230c-7 57 -22 117 -88 153c-39 21 -90 23 -123 8c-28 -13 -47 -35 -61 -59z" />
    <glyph glyph-name="atilde" unicode="&#xe3;" horiz-adv-x="573" 
d="M471 785h64c-10 -46 -27 -102 -80 -129c-68 -33 -126 11 -214 32c-28 7 -50 16 -70 -4c-14 -13 -19 -27 -26 -51h-60c7 47 26 100 72 127c43 24 107 13 175 -13l19 -7c33 -13 68 -19 97 -1c15 9 19 24 23 46zM449 484v72h87v-556h-87v71c-56 -76 -130 -102 -204 -90
c-86 15 -142 66 -178 162c-30 81 -32 264 44 354c57 70 138 87 208 76c61 -9 85 -30 130 -89zM177 429c-38 -66 -36 -221 -10 -278c20 -47 46 -75 93 -86c43 -9 95 2 129 32c64 60 66 176 60 230c-6 57 -21 117 -88 153c-38 21 -89 23 -122 8c-28 -13 -47 -35 -62 -59z" />
    <glyph glyph-name="aring" unicode="&#xe5;" horiz-adv-x="573" 
d="M185 744c0 59 51 105 111 105s105 -49 105 -109s-50 -107 -110 -107s-106 51 -106 111zM285 677c36 -4 70 22 74 58s-22 66 -58 70s-68 -20 -72 -56s20 -68 56 -72zM444 484v72h87v-556h-87v71c-56 -76 -131 -102 -204 -90c-87 15 -143 66 -179 162
c-29 81 -32 264 44 354c58 70 139 87 208 76c62 -9 86 -30 131 -89zM172 429c-39 -66 -36 -221 -11 -278c20 -47 47 -75 94 -86c42 -9 94 2 129 32c64 60 65 176 60 230c-7 57 -21 117 -88 153c-39 21 -89 23 -123 8c-28 -13 -46 -35 -61 -59z" />
    <glyph glyph-name="ccedilla" unicode="&#xe7;" horiz-adv-x="537" 
d="M253 -16c-38 0 -77 15 -110 40c-91 68 -110 195 -103 279c5 74 33 192 136 246c63 34 167 36 236 -4c72 -41 89 -104 100 -172h-91c-12 55 -25 94 -84 114c-36 12 -92 10 -130 -22c-74 -57 -76 -168 -70 -236c0 -45 26 -122 84 -152c32 -16 94 -17 126 2
c49 29 60 61 74 120h91c-13 -79 -45 -162 -139 -198c-21 -8 -46 -16 -73 -16l-48 -72c31 6 48 7 75 0c37 -9 61 -33 68 -69c6 -31 -3 -65 -34 -92c-56 -51 -160 -32 -225 -8l19 39c61 -22 101 -27 133 -10c21 11 32 28 32 44c0 20 -5 36 -17 46c-26 21 -52 18 -100 2l-20 15
z" />
    <glyph glyph-name="eacute" unicode="&#xe9;" horiz-adv-x="565" 
d="M275 821h142l-172 -188h-86zM540 255h-407c8 -71 12 -152 94 -186c41 -17 110 -18 158 19c26 21 38 43 56 84h91c-31 -89 -71 -155 -168 -184c-68 -20 -176 -9 -243 49c-93 83 -88 268 -76 335c15 79 64 172 160 195c76 18 182 13 252 -44c82 -66 83 -194 83 -268z
M385 468c-42 37 -114 35 -150 20c-68 -28 -94 -96 -99 -157h307c-8 58 -6 92 -58 137z" />
    <glyph glyph-name="egrave" unicode="&#xe8;" horiz-adv-x="565" 
d="M188 784h113l94 -151h-70zM544 255h-407c8 -71 12 -152 94 -186c41 -17 110 -18 158 19c26 21 38 43 56 84h91c-31 -89 -71 -155 -168 -184c-68 -20 -176 -9 -243 49c-93 83 -88 268 -76 335c15 79 64 172 160 195c76 18 182 13 252 -44c82 -66 83 -194 83 -268zM389 468
c-42 37 -114 35 -150 20c-68 -28 -94 -96 -99 -157h307c-8 58 -6 92 -58 137z" />
    <glyph glyph-name="ecircumflex" unicode="&#xea;" horiz-adv-x="565" 
d="M229 820h119l132 -187h-104l-85 123l-90 -123h-104zM541 255h-406c8 -71 12 -152 93 -186c41 -17 111 -18 159 19c25 21 37 43 56 84h90c-30 -89 -70 -155 -168 -184c-68 -20 -176 -9 -242 49c-94 83 -88 268 -76 335c14 79 64 172 160 195c76 18 181 13 252 -44
c81 -66 82 -194 82 -268zM387 468c-43 37 -115 35 -151 20c-68 -28 -93 -96 -99 -157h307c-8 58 -5 92 -57 137z" />
    <glyph glyph-name="edieresis" unicode="&#xeb;" horiz-adv-x="565" 
d="M160 741h96v-108h-96v108zM331 743h96v-110h-96v110zM545 255h-406c8 -71 12 -152 93 -186c41 -17 111 -18 159 19c25 21 37 43 56 84h90c-30 -89 -70 -155 -168 -184c-68 -20 -176 -9 -242 49c-94 83 -88 268 -76 335c14 79 64 172 160 195c76 18 181 13 252 -44
c81 -66 82 -194 82 -268zM391 468c-43 37 -115 35 -151 20c-68 -28 -93 -96 -99 -157h307c-8 58 -5 92 -57 137z" />
    <glyph glyph-name="iacute" unicode="&#xed;" horiz-adv-x="185" 
d="M87 821h142l-172 -188h-86zM56 556h91v-556h-91v556z" />
    <glyph glyph-name="igrave" unicode="&#xec;" horiz-adv-x="185" 
d="M-4 784h113l94 -151h-70zM56 556h91v-556h-91v556z" />
    <glyph glyph-name="icircumflex" unicode="&#xee;" horiz-adv-x="185" 
d="M40 820h119l132 -187h-104l-86 123l-89 -123h-104zM56 556h91v-556h-91v556z" />
    <glyph glyph-name="idieresis" unicode="&#xef;" horiz-adv-x="185" 
d="M-33 741h96v-108h-96v108zM137 743h96v-110h-96v110zM56 556h91v-556h-91v556z" />
    <glyph glyph-name="ntilde" unicode="&#xf1;" horiz-adv-x="547" 
d="M440 785h64c-9 -46 -27 -102 -80 -129c-68 -33 -125 11 -213 32c-28 7 -51 16 -71 -4c-13 -13 -19 -27 -25 -51h-60c6 47 25 100 72 127c42 24 106 13 174 -13l19 -7c33 -13 68 -19 97 -1c15 9 19 24 23 46zM507 0h-94v292c0 45 8 149 -54 187c-32 18 -92 18 -130 -4
c-90 -55 -81 -139 -81 -227v-248h-93v556h90v-77c79 93 176 114 256 85c116 -44 106 -147 106 -236v-328z" />
    <glyph glyph-name="oacute" unicode="&#xf3;" horiz-adv-x="581" 
d="M355 821h142l-172 -188h-86zM253 573c66 8 166 0 234 -74c84 -92 78 -234 58 -318c-20 -80 -66 -154 -157 -188c-63 -22 -173 -24 -245 30c-92 69 -106 192 -103 272c3 74 39 193 131 249c24 15 60 27 82 29zM135 256c4 -56 12 -136 81 -177c41 -23 104 -26 148 -3
c72 36 88 105 95 163c25 213 -107 281 -207 249c-104 -33 -121 -167 -117 -232z" />
    <glyph glyph-name="ograve" unicode="&#xf2;" horiz-adv-x="581" 
d="M151 784h113l93 -151h-69zM253 573c66 8 166 0 234 -74c84 -92 78 -234 58 -318c-20 -80 -66 -154 -157 -188c-63 -22 -173 -24 -245 30c-92 69 -106 192 -103 272c3 74 39 193 131 249c24 15 60 27 82 29zM135 256c4 -56 12 -136 81 -177c41 -23 104 -26 148 -3
c72 36 88 105 95 163c25 213 -107 281 -207 249c-104 -33 -121 -167 -117 -232z" />
    <glyph glyph-name="ocircumflex" unicode="&#xf4;" horiz-adv-x="581" 
d="M232 820h119l132 -187h-104l-86 123l-89 -123h-104zM251 573c65 8 165 0 233 -74c84 -92 79 -234 59 -318c-20 -80 -67 -154 -158 -188c-62 -22 -173 -24 -245 30c-92 69 -105 192 -103 272c3 74 39 193 131 249c24 15 60 27 83 29zM132 256c4 -56 12 -136 81 -177
c42 -23 104 -26 148 -3c72 36 88 105 95 163c25 213 -107 281 -207 249c-104 -33 -121 -167 -117 -232z" />
    <glyph glyph-name="odieresis" unicode="&#xf6;" horiz-adv-x="581" 
d="M171 741h96v-108h-96v108zM341 743h96v-110h-96v110zM256 573c65 8 165 0 233 -74c84 -92 79 -234 59 -318c-20 -80 -67 -154 -157 -188c-63 -22 -174 -24 -246 30c-92 69 -105 192 -102 272c2 74 38 193 130 249c24 15 60 27 83 29zM137 256c4 -56 12 -136 82 -177
c41 -23 104 -26 148 -3c72 36 88 105 94 163c26 213 -106 281 -206 249c-104 -33 -122 -167 -118 -232z" />
    <glyph glyph-name="otilde" unicode="&#xf5;" horiz-adv-x="581" 
d="M463 785h64c-10 -49 -27 -102 -80 -129c-68 -33 -126 11 -214 32c-28 7 -49 9 -69 -8c-23 -20 -17 -25 -27 -47h-60c7 47 26 100 72 127c43 24 107 13 175 -13l19 -7c33 -13 69 -24 97 1c16 15 16 30 23 44zM256 573c65 8 165 0 233 -74c84 -92 79 -234 59 -318
c-20 -80 -67 -154 -157 -188c-63 -22 -174 -24 -246 30c-92 69 -105 192 -102 272c2 74 38 193 130 249c24 15 60 27 83 29zM137 256c4 -56 12 -136 82 -177c41 -23 104 -26 148 -3c72 36 88 105 94 163c26 213 -106 281 -206 249c-104 -33 -122 -167 -118 -232z" />
    <glyph glyph-name="uacute" unicode="&#xfa;" horiz-adv-x="536" 
d="M313 821h143l-172 -188h-87zM56 556h93v-305c0 -31 -6 -148 51 -175c36 -16 95 -13 131 9c84 54 76 190 76 235v236h93v-556h-93v77c-83 -100 -175 -113 -248 -86c-112 41 -103 137 -103 226v339z" />
    <glyph glyph-name="ugrave" unicode="&#xf9;" horiz-adv-x="536" 
d="M167 784h113l93 -151h-69zM56 556h93v-305c0 -31 -6 -148 51 -175c36 -16 95 -13 131 9c84 54 76 190 76 235v236h93v-556h-93v77c-83 -100 -175 -113 -248 -86c-112 41 -103 137 -103 226v339z" />
    <glyph glyph-name="ucircumflex" unicode="&#xfb;" horiz-adv-x="536" 
d="M233 820h119l132 -187h-104l-85 123l-90 -123h-104zM56 556h93v-305c0 -31 -6 -148 51 -175c36 -16 95 -13 131 9c84 54 76 190 76 235v236h93v-556h-93v77c-83 -100 -175 -113 -248 -86c-112 41 -103 137 -103 226v339z" />
    <glyph glyph-name="udieresis" unicode="&#xfc;" horiz-adv-x="536" 
d="M149 741h96v-108h-96v108zM320 743h96v-110h-96v110zM56 556h93v-305c0 -31 -6 -148 51 -175c36 -16 95 -13 131 9c84 54 76 190 76 235v236h93v-556h-93v77c-83 -100 -175 -113 -248 -86c-112 41 -103 137 -103 226v339z" />
    <glyph glyph-name="dagger" unicode="&#x2020;" horiz-adv-x="595" 
d="M256 767h99v-226h200v-81h-200v-629h-99v629h-200v81h200v226z" />
    <glyph glyph-name="cent" unicode="&#xa2;" horiz-adv-x="536" 
d="M324 489c-44 11 -84 4 -117 -24c-74 -57 -76 -168 -70 -236c0 -41 20 -109 68 -142zM364 468l-116 -400c33 -7 75 -4 99 11c49 29 60 61 74 120h91c-13 -79 -45 -162 -139 -198c-41 -16 -96 -24 -148 -13l-32 -107h-48l35 119c-15 7 -24 15 -37 24
c-91 68 -110 195 -103 279c5 74 33 192 136 246c44 24 111 32 169 20l27 92h47l-28 -104c10 0 13 -6 21 -12c72 -41 89 -104 100 -172h-91c-8 35 -34 75 -57 95z" />
    <glyph glyph-name="sterling" unicode="&#xa3;" horiz-adv-x="624" 
d="M569 524h-93c-4 55 -12 115 -76 145c-37 19 -123 18 -160 -6c-48 -32 -61 -70 -59 -120c3 -43 35 -102 62 -150h168v-54h-144c20 -108 5 -163 -100 -259c89 36 120 40 212 12l26 -8c62 -17 78 -20 140 20l43 -67c-83 -62 -133 -62 -220 -36l-32 11
c-76 24 -129 32 -227 -24l-50 72c80 61 133 121 129 201c0 11 -1 28 -24 78h-111v54h82c-44 91 -75 160 -36 247c32 69 84 100 154 116c62 15 170 19 236 -36c66 -52 80 -128 80 -196z" />
    <glyph glyph-name="section" unicode="&#xa7;" horiz-adv-x="588" 
d="M496 569h-87c-4 44 -5 83 -60 108c-26 12 -73 15 -105 -6c-28 -20 -41 -47 -40 -78c3 -56 91 -100 135 -126l54 -32c110 -64 170 -108 166 -198c-3 -58 -27 -110 -114 -169c56 -65 64 -119 47 -176c-21 -71 -81 -101 -147 -115c-53 -10 -152 -2 -205 59
c-32 36 -39 84 -43 140h90c5 -47 8 -87 62 -113c27 -12 87 -10 115 9c25 16 40 41 40 73c-1 59 -67 90 -121 126l-67 42c-101 67 -168 106 -163 208c3 63 30 103 106 155c-50 61 -56 104 -40 160c13 51 49 96 109 117c45 16 143 14 195 -21c60 -40 70 -99 73 -163zM140 321
c7 -69 109 -120 155 -148l96 -62c53 40 69 77 72 102c8 79 -70 110 -147 156l-100 64c-61 -36 -80 -66 -76 -112z" />
    <glyph glyph-name="bullet" unicode="&#x2022;" horiz-adv-x="221" 
d="M53 367c0 36 30 65 66 65s66 -29 66 -65s-30 -66 -66 -66s-66 30 -66 66z" />
    <glyph glyph-name="germandbls" unicode="&#xdf;" horiz-adv-x="553" 
d="M408 428c99 -48 123 -105 120 -195c-1 -68 -31 -177 -133 -225c-43 -19 -91 -24 -159 -16v80c49 -4 115 -8 163 49c33 40 36 120 26 156c-10 44 -36 74 -85 91c-27 9 -56 9 -99 5v84c44 -2 100 -1 135 44c23 31 29 76 17 114c-10 32 -36 61 -76 73
c-37 11 -88 12 -122 -16c-54 -43 -47 -136 -47 -179v-493h-93v500c0 80 -10 179 88 243c61 40 172 42 238 13c55 -23 96 -72 107 -129c9 -55 4 -135 -80 -199z" />
    <glyph glyph-name="registered" unicode="&#xae;" horiz-adv-x="1051" 
d="M687 747h58l-469 -766h-57zM155 732h66v-437h-66v437zM871 240c49 -27 77 -53 80 -103c2 -38 -10 -82 -56 -117c-47 -35 -147 -39 -203 -19c-51 20 -83 48 -93 98c-8 32 -3 72 32 106c17 18 29 22 49 32c-44 28 -63 46 -65 87c-2 31 10 64 46 93c42 34 130 38 175 24
c36 -9 80 -36 95 -77c6 -21 5 -59 -12 -85c-8 -11 -16 -19 -48 -39zM685 309c10 -28 35 -41 60 -48c32 -6 74 -1 98 22c21 18 25 40 22 56c-5 24 -24 45 -50 54c-28 10 -79 6 -103 -10c-28 -22 -35 -50 -27 -74zM672 96c13 -32 41 -48 73 -55c34 -6 88 -2 115 24
c20 20 28 51 23 76c-6 31 -28 50 -58 60c-34 15 -90 12 -117 -6c-44 -28 -49 -70 -36 -99z" />
    <glyph glyph-name="copyright" unicode="&#xa9;" horiz-adv-x="1051" 
d="M740 748h59l-471 -767h-55zM333 532c48 -21 74 -41 82 -87c6 -34 -2 -78 -38 -114c-46 -47 -140 -55 -193 -47c-45 7 -89 28 -115 79c-5 12 -9 25 -13 68h65c7 -42 11 -71 55 -91c28 -12 89 -13 127 9c24 15 41 38 42 67c2 23 -6 47 -30 65c-28 20 -83 22 -119 20v50
c37 -2 97 -4 123 36c12 17 14 40 4 60c-15 28 -46 41 -79 42c-35 3 -73 -2 -100 -38c-8 -14 -11 -24 -15 -55h-61c7 63 13 96 68 124c45 23 144 25 192 3c39 -19 61 -46 67 -83c6 -44 -4 -71 -62 -108zM920 240c49 -27 77 -53 80 -103c3 -38 -9 -82 -56 -117
s-147 -39 -203 -19c-50 20 -82 48 -93 98c-8 32 -3 72 32 106c17 18 29 22 49 32c-44 28 -62 46 -65 87c-1 31 11 64 47 93c41 34 129 38 174 24c36 -9 80 -36 95 -77c7 -21 5 -59 -12 -85c-8 -11 -16 -19 -48 -39zM735 309c9 -28 34 -41 60 -48c32 -6 73 -1 97 22
c21 18 25 40 23 56c-6 24 -24 45 -51 54c-28 10 -79 6 -103 -10c-28 -22 -34 -50 -26 -74zM721 96c14 -32 42 -48 74 -55c33 -6 88 -2 114 24c20 20 28 51 23 76c-5 31 -28 50 -57 60c-35 15 -91 12 -118 -6c-44 -28 -49 -70 -36 -99z" />
    <glyph glyph-name="acute" unicode="&#xb4;" horiz-adv-x="348" 
d="M212 977h143l-172 -188h-87z" />
    <glyph glyph-name="dieresis" unicode="&#xa8;" horiz-adv-x="357" 
d="M55 755h96v-108h-96v108zM225 756h96v-109h-96v109z" />
    <glyph glyph-name="AE" unicode="&#xc6;" horiz-adv-x="1061" 
d="M333 765h682v-90h-414v-235h379v-88h-379v-260h424v-92h-526v228h-280l-87 -228h-109zM255 316h244v359h-102z" />
    <glyph glyph-name="Oslash" unicode="&#xd8;" horiz-adv-x="801" 
d="M596 624c-9 11 -19 20 -29 28c-74 57 -171 59 -247 36c-35 -11 -67 -25 -103 -71c-70 -89 -84 -238 -61 -336c9 -37 20 -69 37 -98zM221 144c20 -20 44 -40 76 -57c67 -36 180 -26 247 17c101 65 127 192 127 265c0 58 -10 146 -48 214zM697 667c88 -118 94 -303 64 -412
c-28 -106 -98 -216 -228 -260c-97 -34 -272 -30 -366 54c-7 6 -12 11 -18 16l-80 -88l-33 34l81 90c-77 106 -84 235 -78 316c5 98 58 259 182 330c40 22 80 33 116 38c86 11 230 11 330 -84l80 87l32 -32z" />
    <glyph glyph-name="infinity" unicode="&#x221e;" horiz-adv-x="533" 
d="M325 821h143l-172 -188h-87zM23 556h97l156 -447l151 447h101l-288 -783h-85l69 207z" />
    <glyph glyph-name="yen" unicode="&#xa5;" horiz-adv-x="1051" 
d="M740 747h59l-467 -766h-59zM119 731h269v-54h-217l-23 -121c63 44 149 37 203 4c36 -23 65 -69 66 -117c2 -40 -12 -92 -69 -134c-67 -48 -147 -34 -199 -14c-53 20 -74 54 -88 113h67c13 -44 28 -63 75 -72c32 -7 85 -3 114 27c27 25 38 62 31 93s-31 59 -68 69
c-39 11 -92 8 -145 -36h-58zM925 241c50 -26 78 -50 80 -104c3 -37 -10 -84 -56 -117c-50 -36 -148 -39 -204 -19c-48 19 -81 48 -92 100c-6 32 -1 74 32 106c22 20 32 21 48 30c-34 20 -60 42 -62 87c-2 33 12 69 45 96c43 35 128 36 172 24c37 -11 81 -39 96 -80
c8 -23 5 -63 -12 -87c-16 -21 -24 -21 -47 -36zM740 309c12 -29 40 -42 64 -48c29 -5 71 0 96 24c17 16 23 38 19 55c-6 25 -28 43 -52 52c-30 11 -79 7 -100 -8c-28 -21 -36 -49 -27 -75zM725 149c-9 -28 -1 -56 18 -77c32 -37 86 -37 116 -32c32 5 61 21 73 52
c9 27 5 63 -11 83c-26 36 -82 40 -110 37c-36 -4 -74 -24 -86 -63z" />
    <glyph glyph-name="mu" unicode="&#xb5;" horiz-adv-x="1051" 
d="M744 747h59l-470 -766h-58zM68 731h357v-48c-121 -132 -184 -268 -213 -390h-71c32 143 83 235 206 382h-279v56zM928 243c49 -27 77 -51 80 -104c3 -38 -11 -84 -56 -118c-51 -36 -148 -38 -204 -18c-48 18 -81 48 -92 100c-7 32 -1 73 32 105c21 20 32 21 48 31
c-35 20 -60 41 -63 86c-1 34 12 70 46 96c42 35 128 36 172 24c37 -10 81 -38 96 -80c8 -22 5 -62 -12 -86c-16 -22 -24 -22 -47 -36zM743 311c12 -30 40 -43 64 -48c29 -6 70 0 96 24c17 16 22 37 18 54c-5 26 -28 43 -52 52c-29 11 -78 7 -100 -8c-28 -21 -36 -49 -26 -74
zM728 151c-9 -28 -1 -56 17 -78c32 -37 87 -37 116 -32c32 6 62 22 74 52c9 27 5 63 -11 83c-27 36 -83 40 -111 37c-36 -4 -73 -24 -85 -62z" />
    <glyph glyph-name="partialdiff" unicode="&#x2202;" horiz-adv-x="1051" 
d="M693 748h59l-468 -767h-57zM163 732h66v-437h-66v437zM632 449h63v-237h164v237h62v-237h51v-52h-51v-160h-62v160h-227v289z" />
    <glyph glyph-name="summation" unicode="&#x2211;" horiz-adv-x="1051" 
d="M683 749h54l-465 -768h-57zM664 56h281v-56h-353c9 100 27 132 133 188l22 11c45 24 118 48 128 109c4 25 -4 49 -24 68c-24 23 -75 27 -104 23c-30 -4 -60 -22 -71 -60c-3 -10 -8 -32 -8 -48h-64c4 61 21 118 85 145c47 20 148 25 203 -15c40 -29 57 -70 53 -114
c-9 -88 -89 -116 -166 -152l-27 -12c-28 -12 -45 -24 -55 -32c-25 -24 -33 -55 -33 -55zM151 732h66v-437h-66v437z" />
    <glyph glyph-name="pi" unicode="&#x3c0;" horiz-adv-x="1051" 
d="M684 747h56l-467 -767h-58zM153 732h67v-437h-67v437zM865 239c48 -22 74 -42 82 -87c6 -35 -2 -79 -38 -115c-46 -46 -140 -54 -193 -46c-45 6 -89 28 -115 78c-5 12 -9 26 -13 68h65c7 -41 11 -70 55 -90c28 -12 89 -14 127 9c24 15 41 37 42 67c2 22 -6 46 -30 65
c-28 20 -83 21 -119 20v49c37 -1 97 -4 123 36c12 18 14 40 4 60c-15 28 -46 42 -79 43c-35 3 -73 -3 -100 -39c-8 -13 -11 -24 -15 -54h-61c7 62 13 96 68 124c45 22 144 25 192 2c39 -18 61 -45 67 -82c6 -44 -4 -71 -62 -108z" />
    <glyph glyph-name="integral" unicode="&#x222b;" horiz-adv-x="1051" 
d="M736 747h59l-468 -766h-59zM332 532c48 -21 73 -41 81 -87c7 -34 -1 -78 -37 -114c-47 -47 -115 -62 -185 -51c-46 7 -98 32 -123 83c-5 12 -9 25 -13 68h65c7 -42 11 -71 55 -91c28 -12 89 -13 126 9c24 15 42 38 43 67c1 23 -7 47 -31 65c-28 20 -82 22 -118 20v50
c37 -2 97 -4 122 36c12 17 15 40 4 60c-14 28 -45 41 -78 42c-35 3 -74 -2 -100 -38c-8 -14 -11 -24 -15 -55h-61c6 63 13 96 68 124c45 23 144 25 192 3c38 -19 61 -46 66 -83c7 -44 -4 -71 -61 -108zM673 449h63v-237h164v237h63v-237h50v-52h-50v-160h-63v160h-227v289z
" />
    <glyph glyph-name="ae" unicode="&#xe6;" horiz-adv-x="920" 
d="M743 468c-43 37 -115 35 -151 20c-68 -28 -93 -96 -99 -157h307c-8 58 -5 92 -57 137zM396 393c1 16 -1 32 -8 47c-13 28 -35 44 -71 52c-33 7 -94 7 -132 -24c-24 -21 -30 -47 -37 -81h-87c0 69 20 130 98 168c60 29 205 32 272 -15c14 -11 25 -25 34 -33
c26 28 58 50 98 60c76 18 181 13 252 -44c81 -66 82 -194 82 -268h-406c8 -71 12 -152 93 -186c41 -17 111 -18 159 19c25 21 37 43 56 84h90c-30 -89 -70 -155 -168 -184c-68 -20 -176 -9 -242 49c-18 16 -32 35 -44 56c-82 -100 -148 -121 -239 -113
c-49 5 -109 24 -141 83c-23 41 -23 116 1 165c40 83 116 92 200 95c140 4 139 48 140 70zM396 196v87s-28 -16 -96 -26c-57 -8 -127 -13 -157 -64c-15 -24 -15 -56 -7 -76c13 -33 43 -50 71 -58c44 -11 100 6 140 36c37 28 49 65 49 101z" />
    <glyph glyph-name="oslash" unicode="&#xf8;" horiz-adv-x="581" 
d="M439 403l-260 -295c9 -11 21 -21 36 -29c41 -23 104 -26 148 -3c72 36 88 105 94 163c8 69 0 124 -18 164zM155 147l260 293c-42 52 -108 65 -164 48c-104 -33 -118 -167 -118 -232c0 -32 4 -73 22 -109zM120 40l-63 -71l-32 28l67 76c-48 68 -53 159 -53 222
c0 74 38 193 130 249c24 15 60 29 83 29c61 8 155 0 221 -64l67 72l32 -30l-68 -75c65 -91 59 -217 40 -295c-20 -80 -67 -154 -157 -188c-63 -22 -174 -24 -246 30c-8 5 -14 10 -21 17z" />
    <glyph glyph-name="questiondown" unicode="&#xbf;" horiz-adv-x="545" 
d="M237 576h100v-109h-100v109zM247 380h89c-1 -75 1 -119 -68 -196l-19 -20c-85 -91 -116 -113 -98 -192c8 -36 32 -68 77 -84c35 -11 103 -11 137 16c54 41 54 97 59 145h87c-3 -82 -19 -166 -103 -218c-67 -42 -169 -43 -235 -15c-69 29 -105 79 -120 148
c-18 92 14 135 118 241l25 26c52 52 51 96 51 149z" />
    <glyph glyph-name="exclamdown" unicode="&#xa1;" horiz-adv-x="195" 
d="M56 45l24 348h52l27 -346v-239h-103v237zM55 576h101v-109h-101v109z" />
    <glyph glyph-name="radical" unicode="&#x221a;" horiz-adv-x="1051" 
d="M743 747h57l-468 -766h-59zM133 349h282v-56h-354c10 100 27 132 134 188l21 11c45 24 119 48 128 109c4 26 -4 50 -24 68c-24 23 -75 27 -104 23s-60 -21 -71 -60c-2 -9 -8 -32 -8 -48h-64c4 61 22 119 86 145c46 20 148 26 202 -14c40 -30 58 -71 54 -115
c-10 -88 -90 -116 -167 -152l-27 -12c-28 -12 -45 -24 -54 -32c-26 -24 -34 -55 -34 -55zM924 240c43 -16 73 -41 81 -87c7 -34 -1 -78 -37 -114c-47 -47 -115 -62 -185 -51c-46 7 -98 32 -123 83c-5 12 -9 25 -13 68h65c7 -42 11 -71 55 -91c28 -12 89 -13 126 9
c24 15 42 38 43 67c1 23 -7 47 -31 65c-28 20 -82 22 -118 20v50c37 -2 97 -4 122 36c12 17 15 40 4 60c-14 28 -45 41 -78 42c-35 3 -74 -2 -100 -38c-8 -14 -11 -24 -15 -55h-61c6 63 13 96 68 124c45 23 144 25 192 3c38 -19 61 -46 66 -83c7 -44 -4 -71 -61 -108z" />
    <glyph glyph-name="florin" unicode="&#x192;" horiz-adv-x="337" 
d="M415 771l-16 -83c-32 15 -70 27 -102 3c-46 -35 -58 -158 -64 -198h118v-74h-134l-70 -378c-24 -129 -44 -236 -158 -258c-30 -7 -74 -6 -117 13l15 84c33 -20 68 -23 93 -8c40 24 52 75 67 157l69 390h-115v74h132c19 146 42 259 168 290c31 6 70 2 114 -12z" />
    <glyph glyph-name="guillemotleft" unicode="&#xab;" horiz-adv-x="475" 
d="M224 380l-105 -83l105 -92v-90l-168 130v94l168 132v-91zM444 380l-109 -81l109 -94v-90l-168 130v94l168 132v-91z" />
    <glyph glyph-name="guillemotright" unicode="&#xbb;" horiz-adv-x="475" 
d="M276 471l168 -132v-94l-168 -130v90l105 92l-105 83v91zM56 471l168 -132v-94l-168 -130v90l109 94l-109 81v91z" />
    <glyph glyph-name="Agrave" unicode="&#xc0;" horiz-adv-x="707" 
d="M260 1007h113l94 -151h-70zM311 771h116l274 -771h-109l-81 231h-298l-85 -231h-103zM244 315h235l-114 336z" />
    <glyph glyph-name="Atilde" unicode="&#xc3;" horiz-adv-x="707" 
d="M517 1008h64c-9 -47 -26 -103 -80 -129c-68 -34 -125 10 -213 32c-28 6 -51 16 -71 -4c-13 -14 -18 -27 -25 -51h-60c7 47 25 100 72 127c43 24 107 13 175 -14l18 -6c34 -14 68 -19 98 -2c14 10 18 24 22 47zM311 771h116l274 -771h-109l-81 231h-298l-85 -231h-103z
M244 315h235l-114 336z" />
    <glyph glyph-name="Otilde" unicode="&#xd5;" horiz-adv-x="801" 
d="M571 1008h64c-10 -49 -27 -103 -80 -129c-68 -34 -126 10 -214 32c-28 6 -48 9 -69 -8c-23 -20 -17 -26 -27 -47h-60c7 47 26 100 72 127c43 24 107 13 175 -14l19 -6c33 -14 69 -24 97 1c16 15 16 29 23 44zM341 785c92 12 251 11 350 -105c98 -116 105 -312 74 -425
c-28 -106 -98 -216 -228 -260c-97 -34 -272 -30 -366 54c-124 110 -134 272 -128 368c5 98 58 259 182 330c40 22 80 33 116 38zM221 617c-70 -89 -84 -238 -61 -336c20 -84 51 -145 141 -194c67 -36 180 -26 247 17c101 65 124 192 127 265c2 80 -19 216 -104 283
c-74 57 -171 59 -247 36c-35 -11 -67 -25 -103 -71z" />
    <glyph glyph-name="OE" unicode="&#x152;" horiz-adv-x="1072" 
d="M559 691v74h469v-93h-372v-233h355v-88h-355v-256h373v-95h-470v75c-84 -100 -180 -103 -264 -87c-116 21 -184 83 -226 204c-45 132 -48 356 62 485c77 92 202 115 285 100c64 -12 92 -28 143 -86zM245 657c-106 -85 -108 -277 -97 -362c9 -80 40 -167 132 -211
c52 -25 140 -20 192 13c89 59 87 126 87 206v162c0 83 1 131 -67 191c-44 39 -128 44 -167 37c-29 -5 -54 -16 -80 -36z" />
    <glyph glyph-name="oe" unicode="&#x153;" horiz-adv-x="981" 
d="M504 469c89 108 211 126 305 91c134 -49 151 -188 150 -305h-412c2 -63 6 -128 84 -174c42 -24 106 -26 148 -4c45 23 61 46 81 102h93c-28 -95 -78 -160 -169 -188c-76 -23 -165 -15 -235 42c-16 14 -25 24 -52 59c-58 -91 -124 -113 -208 -113c-61 -2 -148 25 -204 108
c-64 93 -56 249 -24 330c32 80 86 132 174 152c69 16 169 7 234 -54c18 -18 23 -26 35 -46zM132 260c3 -56 17 -137 88 -179c43 -25 96 -28 141 -5c71 36 91 113 96 167c6 58 4 166 -65 222c-40 32 -107 36 -145 23c-103 -36 -119 -165 -115 -228zM851 400
c-18 47 -50 73 -90 87c-37 13 -92 10 -132 -14c-56 -34 -74 -93 -80 -146h311c0 32 1 42 -9 73z" />
    <glyph glyph-name="endash" unicode="&#x2013;" horiz-adv-x="687" 
d="M55 333h596v-76h-596v76z" />
    <glyph glyph-name="emdash" unicode="&#x2014;" horiz-adv-x="900" 
d="M56 336h811v-76h-811v76z" />
    <glyph glyph-name="quotedblleft" unicode="&#x201c;" horiz-adv-x="375" 
d="M165 493h-109v38c0 110 -12 189 109 234v-49c-62 -19 -53 -92 -54 -108h54v-115zM340 493h-109v38c0 110 -12 189 109 234v-49c-63 -19 -53 -92 -55 -108h55v-115z" />
    <glyph glyph-name="quotedblright" unicode="&#x201d;" horiz-adv-x="375" 
d="M231 765h109v-37c0 -111 12 -189 -109 -235v50c62 18 53 92 54 108h-54v114zM56 765h109v-37c0 -111 12 -189 -109 -235v50c63 18 53 92 55 108h-55v114z" />
    <glyph glyph-name="quoteleft" unicode="&#x2018;" horiz-adv-x="199" 
d="M164 493h-109v38c0 110 -12 189 109 234v-49c-63 -19 -53 -92 -55 -108h55v-115z" />
    <glyph glyph-name="quoteright" unicode="&#x2019;" horiz-adv-x="199" 
d="M57 765h110v-37c0 -111 12 -189 -110 -235v50c63 18 54 92 55 108h-55v114z" />
    <glyph glyph-name="ydieresis" unicode="&#xff;" horiz-adv-x="533" 
d="M147 741h96v-108h-96v108zM317 743h96v-110h-96v110zM23 556h97l156 -447l151 447h101l-288 -783h-85l69 207z" />
    <glyph glyph-name="Ydieresis" unicode="&#x178;" horiz-adv-x="701" 
d="M344 1044h143l-172 -188h-87zM24 765h116l219 -368l221 368h117l-286 -462v-303h-103v307z" />
    <glyph glyph-name="fraction" unicode="&#x2044;" horiz-adv-x="701" 
d="M229 964h96v-108h-96v108zM400 965h96v-109h-96v109zM24 765h116l219 -368l221 368h117l-286 -462v-303h-103v307z" />
    <glyph glyph-name="guilsinglleft" unicode="&#x2039;" horiz-adv-x="257" 
d="M224 380l-109 -81l109 -94v-90l-168 130v94l168 132v-91z" />
    <glyph glyph-name="guilsinglright" unicode="&#x203a;" horiz-adv-x="257" 
d="M56 471l168 -132v-94l-168 -130v90l109 94l-109 81v91z" />
    <glyph glyph-name="fi" unicode="&#xfb01;" horiz-adv-x="483" 
d="M263 773v-82c-102 0 -94 -3 -94 -135h94v-75h-94v-481h-93v481h-76v75h76v81c1 118 36 138 187 136zM353 765h91v-108h-91v108zM353 556h91v-557h-91v557z" />
    <glyph glyph-name="fl" unicode="&#xfb02;" horiz-adv-x="481" 
d="M264 773v-82c-101 0 -93 -3 -93 -135h93v-75h-93v-481h-94v481h-76v75h76v81c2 118 36 138 187 136zM353 765h91v-765h-91v765z" />
    <glyph glyph-name="daggerdbl" unicode="&#x2021;" horiz-adv-x="600" 
d="M256 767h99v-216h202v-82h-202v-341h202v-81h-202v-215h-99v215h-200v81h200v341h-200v82h200v216z" />
    <glyph glyph-name="periodcentered" unicode="&#xb7;" horiz-adv-x="403" 
d="M193 0h46l-52 -77c30 5 48 6 74 0c38 -10 62 -34 68 -70c7 -30 -2 -65 -33 -92c-56 -50 -160 -32 -225 -8l18 39c62 -21 102 -27 134 -9c21 10 30 28 32 44c2 20 -6 36 -18 45c-25 21 -52 19 -100 3l-20 14z" />
    <glyph glyph-name="quotedblbase" unicode="&#x201e;" horiz-adv-x="375" 
d="M231 115h109v-38c0 -110 12 -189 -109 -234v49c62 19 53 92 54 108h-54v115zM56 115h109v-38c0 -110 12 -189 -109 -234v49c63 19 53 92 55 108h-55v115z" />
    <glyph glyph-name="perthousand" unicode="&#x2030;" horiz-adv-x="1141" 
d="M571 773h56l-439 -800h-56zM53 613c7 91 87 158 178 151c90 -7 157 -87 150 -177c-6 -91 -86 -158 -177 -151s-157 87 -151 177zM207 503c54 -6 104 34 109 89s-33 103 -88 108s-104 -33 -109 -88c-6 -55 33 -104 88 -109zM376 171c7 90 87 157 177 150
c91 -6 158 -86 151 -177s-87 -157 -177 -151c-91 7 -158 87 -151 178zM529 60c55 -5 104 35 110 89c5 55 -34 103 -88 108c-55 6 -104 -33 -110 -88c-5 -54 34 -104 88 -109zM771 171c6 90 86 157 177 150c91 -6 157 -86 151 -177c-7 -91 -87 -157 -178 -151
c-90 7 -157 87 -150 178zM924 60c55 -5 104 35 109 89c6 55 -33 103 -88 108c-54 6 -104 -33 -109 -88c-5 -54 33 -104 88 -109z" />
    <glyph glyph-name="Acircumflex" unicode="&#xc2;" horiz-adv-x="707" 
d="M304 1043h119l132 -187h-104l-86 123l-89 -123h-104zM311 771h116l274 -771h-109l-81 231h-298l-85 -231h-103zM244 315h235l-114 336z" />
    <glyph glyph-name="Ecircumflex" unicode="&#xca;" horiz-adv-x="651" 
d="M276 1043h119l132 -187h-104l-86 123l-89 -123h-104zM55 765h554v-90h-452v-235h418v-88h-420v-260h462v-92h-562v765z" />
    <glyph glyph-name="Aacute" unicode="&#xc1;" horiz-adv-x="707" 
d="M351 1044h142l-172 -188h-86zM311 771h116l274 -771h-109l-81 231h-298l-85 -231h-103zM244 315h235l-114 336z" />
    <glyph glyph-name="Edieresis" unicode="&#xcb;" horiz-adv-x="651" 
d="M203 964h96v-108h-96v108zM373 965h96v-109h-96v109zM55 765h554v-90h-452v-235h418v-88h-420v-260h462v-92h-562v765z" />
    <glyph glyph-name="Egrave" unicode="&#xc8;" horiz-adv-x="651" 
d="M232 1007h113l94 -151h-71zM55 765h554v-90h-452v-235h418v-88h-420v-260h462v-92h-562v765z" />
    <glyph glyph-name="Iacute" unicode="&#xcd;" horiz-adv-x="344" 
d="M55 765h253v-92h-73v-581h73v-92h-253v92h72v581h-72v92zM157 1044h143l-172 -188h-87z" />
    <glyph glyph-name="Icircumflex" unicode="&#xce;" horiz-adv-x="344" 
d="M121 1043h119l132 -187h-104l-85 123l-90 -123h-104zM55 765h253v-92h-73v-581h73v-92h-253v92h72v581h-72v92z" />
    <glyph glyph-name="Idieresis" unicode="&#xcf;" horiz-adv-x="344" 
d="M39 964h96v-108h-96v108zM209 965h96v-109h-96v109zM55 765h253v-92h-73v-581h73v-92h-253v92h72v581h-72v92z" />
    <glyph glyph-name="Igrave" unicode="&#xcc;" horiz-adv-x="344" 
d="M55 765h253v-92h-73v-581h73v-92h-253v92h72v581h-72v92zM89 1007h114l93 -151h-69z" />
    <glyph glyph-name="Oacute" unicode="&#xd3;" horiz-adv-x="801" 
d="M399 1044h142l-172 -188h-86zM343 785c92 12 250 11 349 -105s105 -312 75 -425c-28 -106 -99 -216 -228 -260c-98 -34 -272 -30 -367 54c-124 110 -133 272 -128 368c5 98 59 259 183 330c40 22 80 33 116 38zM223 617c-71 -89 -84 -238 -62 -336
c20 -84 51 -145 142 -194c66 -36 180 -26 246 17c102 65 124 192 127 265c3 80 -19 216 -104 283c-73 57 -171 59 -247 36c-34 -11 -66 -25 -102 -71z" />
    <glyph glyph-name="Ocircumflex" unicode="&#xd4;" horiz-adv-x="801" 
d="M349 1043h119l132 -187h-104l-85 123l-90 -123h-104zM340 785c92 12 251 11 349 -105c99 -116 106 -312 75 -425c-28 -106 -99 -216 -228 -260c-97 -34 -272 -30 -367 54c-124 110 -133 272 -128 368c6 98 59 259 183 330c40 22 80 33 116 38zM220 617
c-71 -89 -84 -238 -61 -336c20 -84 50 -145 141 -194c67 -36 180 -26 247 17c101 65 124 192 126 265c3 80 -18 216 -104 283c-73 57 -170 59 -246 36c-35 -11 -67 -25 -103 -71z" />
    <glyph glyph-name="Ograve" unicode="&#xd2;" horiz-adv-x="801" 
d="M305 1007h114l93 -151h-69zM340 785c92 12 251 11 349 -105c99 -116 106 -312 75 -425c-28 -106 -99 -216 -228 -260c-97 -34 -272 -30 -367 54c-124 110 -133 272 -128 368c6 98 59 259 183 330c40 22 80 33 116 38zM220 617c-71 -89 -84 -238 -61 -336
c20 -84 50 -145 141 -194c67 -36 180 -26 247 17c101 65 124 192 126 265c3 80 -18 216 -104 283c-73 57 -170 59 -246 36c-35 -11 -67 -25 -103 -71z" />
    <glyph glyph-name="Uacute" unicode="&#xda;" horiz-adv-x="691" 
d="M347 1044h142l-172 -188h-86zM159 765v-430c0 -75 -8 -190 90 -247c54 -31 158 -25 211 5c101 58 91 194 91 251v421h104v-437c0 -115 0 -236 -134 -313c-89 -52 -258 -52 -334 -7c-143 81 -132 199 -132 311v446h104z" />
    <glyph glyph-name="Ucircumflex" unicode="&#xdb;" horiz-adv-x="691" 
d="M295 1043h118l132 -187h-104l-85 123l-89 -123h-104zM159 765v-430c0 -75 -8 -190 90 -247c54 -31 158 -25 211 5c101 58 91 194 91 251v421h104v-437c0 -115 0 -236 -134 -313c-89 -52 -258 -52 -334 -7c-143 81 -132 199 -132 311v446h104z" />
    <glyph glyph-name="Ugrave" unicode="&#xd9;" horiz-adv-x="691" 
d="M291 1007h113l93 -151h-69zM159 765v-430c0 -75 -8 -190 90 -247c54 -31 158 -25 211 5c101 58 91 194 91 251v421h104v-437c0 -115 0 -236 -134 -313c-89 -52 -258 -52 -334 -7c-143 81 -132 199 -132 311v446h104z" />
    <glyph glyph-name="dotlessi" unicode="&#x131;" horiz-adv-x="183" 
d="M56 556h91v-556h-91v556z" />
    <glyph glyph-name="circumflex" unicode="&#x2c6;" horiz-adv-x="468" 
d="M185 976h119l132 -187h-104l-85 123l-90 -123h-104z" />
    <glyph glyph-name="tilde" unicode="&#x2dc;" horiz-adv-x="484" 
d="M439 949h64c-10 -46 -27 -102 -80 -129c-68 -33 -126 11 -214 32c-28 7 -50 16 -70 -4c-14 -13 -19 -27 -26 -51h-60c7 47 26 100 72 127c43 24 107 13 175 -13l19 -7c33 -13 68 -19 97 -1c15 9 19 24 23 46z" />
    <glyph glyph-name="ring" unicode="&#x2da;" horiz-adv-x="304" 
d="M52 737c0 59 51 106 111 106s105 -50 105 -110s-51 -106 -111 -106s-105 50 -105 110zM152 671c36 -4 69 21 73 57s-21 67 -57 71s-68 -20 -72 -56s20 -68 56 -72z" />
    </font>
</defs>
</svg>
